<?xml version="1.0" encoding="UTF-8"?>
<svg xmlns="http://www.w3.org/2000/svg" xmlns:xlink="http://www.w3.org/1999/xlink" width="16pt" height="16pt" viewBox="0 0 16 16" version="1.1">
<g id="surface1">
<path style="fill:none;stroke-width:32;stroke-linecap:butt;stroke-linejoin:miter;stroke:rgb(207,207,207);stroke-opacity:1;stroke-miterlimit:10;" d="M 448 256 C 448 150 362 64 256 64 C 150 64 64 150 64 256 C 64 362 150 448 256 448 C 362 448 448 362 448 256 Z M 448 256 " transform="matrix(0.0332031,0,0,0.0332031,0,0)"/>
<path style=" stroke:none;fill-rule:nonzero;fill:rgb(216,125,74);fill-opacity:1;" d="M 13.28125 8.5 C 13.28125 11.140625 11.140625 13.28125 8.5 13.28125 C 5.859375 13.28125 3.71875 11.140625 3.71875 8.5 C 3.71875 5.859375 5.859375 3.71875 8.5 3.71875 C 11.140625 3.71875 13.28125 5.859375 13.28125 8.5 Z M 13.28125 8.5 "/>
</g>
</svg>
